<?xml version="1.0" encoding="utf-8"?>
<!-- Generator: Adobe Illustrator 27.5.0, SVG Export Plug-In . SVG Version: 6.00 Build 0)  -->
<svg version="1.1" xmlns="http://www.w3.org/2000/svg" xmlns:xlink="http://www.w3.org/1999/xlink" x="0px" y="0px"
	 viewBox="0 0 750 500" style="enable-background:new 0 0 750 500;" xml:space="preserve">
<g id="BACKGROUND">
	<rect x="-0.998" y="0.554" style="fill:#E3EFFF;" width="750" height="500"/>
</g>
<g id="OBJECTS">
	<g>
		<g>
			
				<ellipse transform="matrix(0.9869 -0.1615 0.1615 0.9869 -10.2173 91.9476)" style="fill:#0D004F;" cx="560.475" cy="108.822" rx="26.293" ry="26.293"/>
			<circle style="fill:#FFFFFF;" cx="558.587" cy="104.572" r="26.293"/>
			
				<ellipse transform="matrix(0.9726 -0.2325 0.2325 0.9726 -9.0067 132.7181)" style="fill:#3041B0;" cx="558.587" cy="104.572" rx="27.304" ry="27.304"/>
			
				<ellipse transform="matrix(0.9624 -0.2717 0.2717 0.9624 -7.3987 155.7092)" style="fill:#D4E2FF;" cx="558.587" cy="104.572" rx="21.818" ry="21.818"/>
			<path style="opacity:0.62;fill:#FFFFFF;" d="M544.357,106.705c7.269-7.549,14.534-15.107,21.904-22.558
				c-2.388-0.898-4.973-1.392-7.675-1.392c-12.05,0-21.818,9.768-21.818,21.817c0,2.938,0.585,5.74,1.638,8.298
				C540.393,110.817,542.376,108.762,544.357,106.705z"/>
			<path style="opacity:0.62;fill:#FFFFFF;" d="M546.768,119.628c1.211-1.188,2.457-2.338,3.665-3.528
				c8.441-8.313,16.933-16.574,25.477-24.78c-1.134-1.479-2.452-2.809-3.922-3.955c-10.276,10.128-20.448,20.363-30.646,30.569
				c1.028,1.324,2.205,2.526,3.505,3.582C545.466,120.839,546.172,120.213,546.768,119.628z"/>
			<path d="M560.525,104.572c0-1.071-0.868-1.939-1.939-1.939c-1.071,0-1.939,0.868-1.939,1.939c0,1.071,0.868,1.939,1.939,1.939
				C559.657,106.511,560.525,105.643,560.525,104.572z"/>
			<g>
				<path d="M568.131,109.976l-10.191-5.01l0.362-18.225c0.003-0.137,0.111-0.248,0.247-0.255l0,0
					c0.147-0.008,0.271,0.107,0.274,0.254l0.409,17.439l9.189,5.25c0.143,0.082,0.197,0.26,0.123,0.407l0,0
					C568.469,109.988,568.284,110.051,568.131,109.976z"/>
			</g>
		</g>
		<g style="opacity:0.73;">
			<g>
				<path style="fill:#EDF5FF;" d="M475.224,124.467l-2.452-3.503c-0.683-0.976-1.998-1.256-3.033-0.666
					c-3.229,1.841-6.09,4.162-8.543,6.931c-0.786,0.888-0.787,2.225,0.02,3.095l2.941,3.173c0.686,0.74,0.813,1.848,0.287,2.709
					c-0.897,1.469-1.644,3.022-2.234,4.631c-0.312,0.851-1.13,1.413-2.036,1.448l-4.944,0.19c-1.097,0.042-2.004,0.861-2.178,1.945
					c-0.6,3.739-0.572,7.585,0.081,11.305c0.199,1.129,1.194,1.944,2.339,1.904l4.566-0.157c0.967-0.033,1.862,0.54,2.199,1.446
					c0.301,0.809,0.645,1.61,1.034,2.401c0.366,0.742,0.762,1.46,1.187,2.151c0.49,0.798,0.416,1.82-0.158,2.56l-2.918,3.76
					c-0.687,0.885-0.628,2.135,0.128,2.962c2.544,2.783,5.568,5.148,8.889,6.954c0.996,0.542,2.24,0.284,2.928-0.618l2.83-3.709
					c0.581-0.762,1.578-1.085,2.49-0.791c1.733,0.559,3.525,0.938,5.344,1.126c1.028,0.106,1.853,0.894,2.01,1.916l0.643,4.18
					c0.182,1.186,1.252,2.022,2.449,1.937c3.75-0.267,7.395-1.153,10.888-2.648c0.991-0.425,1.58-1.456,1.392-2.518l-0.895-5.066
					c-0.152-0.862,0.189-1.751,0.91-2.247c1.384-0.95,2.654-2.018,3.802-3.185c0.712-0.724,1.82-0.874,2.708-0.384l3.772,2.082
					c1.035,0.571,2.335,0.259,3.003-0.716c2.11-3.086,3.717-6.534,4.723-10.142c0.297-1.067-0.197-2.198-1.191-2.688l-4.36-2.148
					c-0.825-0.407-1.342-1.269-1.267-2.186c0.136-1.674,0.109-3.368-0.086-5.06c-0.112-0.975,0.439-1.906,1.335-2.307l4.092-1.831
					c1.056-0.473,1.592-1.661,1.255-2.768c-0.536-1.759-1.217-3.48-2.033-5.137c-0.831-1.687-1.799-3.304-2.891-4.827
					c-0.678-0.946-1.957-1.24-2.976-0.678l-3.89,2.147c-0.87,0.48-1.953,0.345-2.668-0.345c-1.332-1.285-2.788-2.413-4.339-3.374
					c-0.852-0.528-1.25-1.553-0.99-2.521l1.15-4.265c0.304-1.128-0.291-2.303-1.377-2.732c-3.457-1.366-7.144-2.167-10.849-2.356
					c-1.16-0.059-2.185,0.753-2.383,1.898l-0.762,4.394c-0.169,0.978-0.951,1.737-1.935,1.865c-1.812,0.236-3.618,0.667-5.389,1.303
					C476.884,125.652,475.81,125.305,475.224,124.467z M492.584,133.432c19.848,10.119,10.678,37.081-11.226,33.001
					c-0.235-0.044-0.473-0.125-0.685-0.234c-19.836-10.125-10.668-37.072,11.226-33.001
					C492.134,133.243,492.371,133.324,492.584,133.432z"/>
				<path style="fill:#EDF5FF;" d="M422.787,156.184l-1.976-2.823c-0.551-0.786-1.61-1.012-2.444-0.537
					c-2.602,1.483-4.908,3.354-6.885,5.586c-0.634,0.715-0.634,1.793,0.016,2.494l2.37,2.557c0.553,0.597,0.655,1.489,0.231,2.184
					c-0.723,1.184-1.324,2.435-1.8,3.732c-0.252,0.686-0.91,1.138-1.641,1.167l-3.984,0.153c-0.884,0.034-1.615,0.693-1.755,1.567
					c-0.484,3.013-0.461,6.113,0.065,9.11c0.16,0.91,0.962,1.566,1.885,1.535l3.679-0.127c0.779-0.027,1.5,0.435,1.772,1.166
					c0.242,0.652,0.519,1.297,0.833,1.935c0.295,0.598,0.614,1.176,0.957,1.734c0.395,0.643,0.335,1.466-0.128,2.063l-2.351,3.03
					c-0.554,0.713-0.506,1.721,0.104,2.387c2.05,2.243,4.487,4.149,7.163,5.604c0.803,0.436,1.805,0.229,2.359-0.498l2.281-2.989
					c0.468-0.614,1.271-0.874,2.007-0.637c1.397,0.451,2.841,0.756,4.307,0.907c0.829,0.086,1.493,0.721,1.62,1.544l0.518,3.368
					c0.147,0.956,1.009,1.63,1.973,1.561c3.022-0.215,5.959-0.929,8.774-2.134c0.799-0.342,1.273-1.173,1.122-2.029l-0.721-4.083
					c-0.123-0.694,0.152-1.412,0.734-1.811c1.115-0.766,2.139-1.626,3.064-2.567c0.573-0.583,1.467-0.705,2.183-0.309l3.04,1.678
					c0.834,0.461,1.882,0.21,2.42-0.577c1.701-2.487,2.995-5.266,3.806-8.174c0.24-0.86-0.159-1.771-0.959-2.166l-3.514-1.731
					c-0.665-0.327-1.081-1.023-1.021-1.761c0.109-1.349,0.088-2.714-0.069-4.078c-0.09-0.786,0.354-1.536,1.076-1.859l3.298-1.476
					c0.851-0.381,1.283-1.338,1.011-2.23c-0.432-1.418-0.981-2.805-1.638-4.14c-0.669-1.359-1.45-2.663-2.329-3.89
					c-0.547-0.763-1.577-0.999-2.398-0.546l-3.135,1.73c-0.701,0.387-1.574,0.278-2.15-0.278c-1.074-1.035-2.247-1.944-3.497-2.719
					c-0.686-0.425-1.008-1.252-0.798-2.031l0.927-3.437c0.245-0.909-0.235-1.855-1.11-2.201c-2.786-1.101-5.757-1.746-8.743-1.899
					c-0.934-0.048-1.761,0.607-1.921,1.529l-0.614,3.541c-0.137,0.788-0.766,1.4-1.56,1.503c-1.46,0.19-2.915,0.537-4.343,1.05
					C424.125,157.139,423.26,156.859,422.787,156.184z M436.778,163.409c15.995,8.154,8.605,29.882-9.047,26.595
					c-0.189-0.035-0.381-0.1-0.552-0.188c-15.985-8.159-8.597-29.875,9.047-26.594C436.415,163.256,436.606,163.322,436.778,163.409
					z"/>
			</g>
		</g>
		<g>
			<path style="fill:#3041B0;" d="M114.304,141.074h24.563l8.031,9.451v-22.683c0-7.308-4.441-13.232-9.92-13.232h-22.674
				c-5.479,0-9.92,5.924-9.92,13.232l0,0C104.384,135.15,108.826,141.074,114.304,141.074z"/>
			<rect x="123.177" y="124.32" style="fill:#FFFFFF;" width="4.166" height="9.72"/>
			<rect x="117.284" y="127.482" style="fill:#FFFFFF;" width="4.166" height="6.558"/>
			<rect x="129.547" y="121.405" style="fill:#FFFFFF;" width="4.166" height="12.636"/>
		</g>
		<g>
			<g>
				<path style="fill:#D4E2FF;" d="M188.399,99.192h-26.081l-8.527,10.035V85.143c0-7.759,4.716-14.049,10.533-14.049h24.075
					c5.817,0,10.533,6.29,10.533,14.049l0,0C198.932,92.902,194.216,99.192,188.399,99.192z"/>
			</g>
			<g>
				<path style="fill:#FFFFFF;" d="M171.331,84.917c0-1.469-1.191-2.66-2.66-2.66c-1.469,0-2.66,1.191-2.66,2.66
					c0,1.469,1.191,2.66,2.66,2.66C170.14,87.577,171.331,86.386,171.331,84.917z"/>
				<path style="fill:#FFFFFF;" d="M179.977,84.917c0-1.469-1.191-2.66-2.66-2.66c-1.469,0-2.66,1.191-2.66,2.66
					c0,1.469,1.191,2.66,2.66,2.66C178.786,87.577,179.977,86.386,179.977,84.917z"/>
				<path style="fill:#FFFFFF;" d="M188.623,84.917c0-1.469-1.191-2.66-2.66-2.66c-1.469,0-2.66,1.191-2.66,2.66
					c0,1.469,1.191,2.66,2.66,2.66C187.432,87.577,188.623,86.386,188.623,84.917z"/>
			</g>
		</g>
		<g>
			<g>
				<path style="fill:#D4E2FF;" d="M625.358,166.366h-26.082l-8.527,10.035v-24.085c0-7.759,4.716-14.049,10.533-14.049h24.075
					c5.817,0,10.533,6.29,10.533,14.049l0,0C635.891,160.076,631.175,166.366,625.358,166.366z"/>
			</g>
			<g>
				<path style="fill:#FFFFFF;" d="M608.29,152.09c0-1.469-1.191-2.66-2.66-2.66c-1.469,0-2.66,1.191-2.66,2.66
					c0,1.469,1.191,2.66,2.66,2.66C607.099,154.75,608.29,153.559,608.29,152.09z"/>
				<path style="fill:#FFFFFF;" d="M616.936,152.09c0-1.469-1.191-2.66-2.66-2.66s-2.66,1.191-2.66,2.66
					c0,1.469,1.191,2.66,2.66,2.66S616.936,153.559,616.936,152.09z"/>
				<path style="fill:#FFFFFF;" d="M625.582,152.09c0-1.469-1.191-2.66-2.66-2.66c-1.469,0-2.66,1.191-2.66,2.66
					c0,1.469,1.191,2.66,2.66,2.66C624.391,154.75,625.582,153.559,625.582,152.09z"/>
			</g>
		</g>
		<g>
			<g>
				<path style="fill:#3041B0;" d="M420.895,141.116h19.129l6.254,7.36v-17.665c0-5.691-3.459-10.304-7.725-10.304h-17.658
					c-4.267,0-7.725,4.613-7.725,10.304l0,0C413.169,136.503,416.628,141.116,420.895,141.116z"/>
			</g>
			<g>
				<path style="fill:#FFFFFF;" d="M424.062,131.14c0-1.102-0.893-1.995-1.995-1.995c-1.102,0-1.995,0.893-1.995,1.995
					c0,1.102,0.893,1.995,1.995,1.995C423.169,133.135,424.062,132.242,424.062,131.14z"/>
				<path style="fill:#FFFFFF;" d="M431.055,131.14c0-1.102-0.893-1.995-1.995-1.995c-1.102,0-1.995,0.893-1.995,1.995
					c0,1.102,0.893,1.995,1.995,1.995C430.161,133.135,431.055,132.242,431.055,131.14z"/>
				<path style="fill:#FFFFFF;" d="M438.047,131.14c0-1.102-0.893-1.995-1.995-1.995c-1.102,0-1.995,0.893-1.995,1.995
					c0,1.102,0.893,1.995,1.995,1.995C437.154,133.135,438.047,132.242,438.047,131.14z"/>
			</g>
		</g>
		<g>
			<g>
				<path style="fill:#EE3A58;" d="M565.523,182.874c0-5.96-4.831-10.791-10.791-10.791c-5.96,0-10.791,4.831-10.791,10.791
					s10.269,15.316,10.269,15.316S565.523,188.834,565.523,182.874z"/>
				<path style="fill:#3041B0;" d="M554.21,198.19c0,0,11.313-9.357,11.313-15.316s-4.831-10.791-10.791-10.791"/>
				<path style="fill:none;stroke:#FFFFFF;stroke-width:0.2873;stroke-miterlimit:10;" d="M551.599,193.317
					c0,0,1.392-11.313-0.174-10.617c-1.567,0.696-2.437,2.437-0.696,2.785c1.741,0.348,8.702,0,8.702,0s0.62-1.98-0.522-2.437
					c-1.74-0.696-1.74,5.918-2.089,10.617"/>
				<g>
					<path style="fill:#18293D;" d="M558.561,195.754h-8.703c-0.673,0-1.218-0.545-1.218-1.218l0,0c0-0.673,0.546-1.218,1.218-1.218
						h8.703c0.673,0,1.218,0.546,1.218,1.218l0,0C559.779,195.208,559.234,195.754,558.561,195.754z"/>
					<path style="fill:#18293D;stroke:#EAEBEC;stroke-width:0.3925;stroke-miterlimit:10;" d="M554.384,201.323L554.384,201.323
						c-2.788,0-5.047-2.26-5.047-5.047v-0.87h10.095v0.87C559.431,199.064,557.171,201.323,554.384,201.323z"/>
				</g>
			</g>
			<g>
				<g>
					
						<line style="fill:none;stroke:#ABC6FF;stroke-width:0.7375;stroke-linecap:round;stroke-miterlimit:10;" x1="535.275" y1="182.943" x2="540.18" y2="182.943"/>
					
						<line style="fill:none;stroke:#ABC6FF;stroke-width:0.7375;stroke-linecap:round;stroke-miterlimit:10;" x1="569.61" y1="182.943" x2="574.516" y2="182.943"/>
				</g>
				<g>
					
						<line style="fill:none;stroke:#ABC6FF;stroke-width:0.7375;stroke-linecap:round;stroke-miterlimit:10;" x1="541.022" y1="169.069" x2="544.49" y2="172.538"/>
					
						<line style="fill:none;stroke:#ABC6FF;stroke-width:0.7375;stroke-linecap:round;stroke-miterlimit:10;" x1="565.3" y1="193.348" x2="568.769" y2="196.816"/>
				</g>
				<g>
					
						<line style="fill:none;stroke:#ABC6FF;stroke-width:0.7375;stroke-linecap:round;stroke-miterlimit:10;" x1="554.895" y1="163.323" x2="554.895" y2="168.228"/>
				</g>
				<g>
					
						<line style="fill:none;stroke:#ABC6FF;stroke-width:0.7375;stroke-linecap:round;stroke-miterlimit:10;" x1="568.769" y1="169.069" x2="565.3" y2="172.538"/>
					
						<line style="fill:none;stroke:#ABC6FF;stroke-width:0.7375;stroke-linecap:round;stroke-miterlimit:10;" x1="544.49" y1="193.348" x2="541.022" y2="196.816"/>
				</g>
			</g>
		</g>
	</g>
	<g>
		<g style="opacity:0.56;">
			<g>
				<rect x="70.82" y="222.106" style="fill:#ABC6FF;" width="25.772" height="14.964"/>
				<rect x="96.592" y="237.07" style="fill:#ABC6FF;" width="25.772" height="14.964"/>
			</g>
			<g>
				<rect x="646.449" y="265.004" style="fill:#ABC6FF;" width="25.772" height="14.964"/>
				<rect x="672.22" y="279.968" style="fill:#ABC6FF;" width="25.772" height="14.964"/>
			</g>
			<g>
				
					<rect x="248.231" y="348.804" transform="matrix(-1 -1.224647e-16 1.224647e-16 -1 522.2333 712.5728)" style="fill:#ABC6FF;" width="25.772" height="14.964"/>
				
					<rect x="222.459" y="363.769" transform="matrix(-1 -1.224647e-16 1.224647e-16 -1 470.6895 742.5015)" style="fill:#ABC6FF;" width="25.772" height="14.964"/>
			</g>
		</g>
		<g>
			<g>
				<path style="fill:#ABC6FF;" d="M105.743,418.765c0,0.833-5.948,1.508-13.284,1.508c-7.337,0-13.284-0.675-13.284-1.508
					c0-0.833,5.948-1.508,13.284-1.508C99.796,417.257,105.743,417.932,105.743,418.765z"/>
				<g>
					<g>
						<g>
							<g>
								<path style="fill:#ABC6FF;" d="M104.255,380.881c3.181-11.465,4.101-23.469,2.691-35.284c-0.069-0.578-0.985-0.585-0.915,0
									c1.401,11.739,0.502,23.648-2.658,35.041C103.215,381.206,104.098,381.449,104.255,380.881L104.255,380.881z"/>
							</g>
						</g>
						<g>
							<path style="fill:#ABC6FF;" d="M117.472,378.769c5.998,1.374,12.736-2.033,15.185-7.678
								c-2.758,0.875-5.707,1.141-8.577,0.775c8.821-2.614,14.276-11.463,17.263-20.164c2.79-8.125,4.164-16.734,4.043-25.324
								c-2.386,2.189-4.771,4.378-7.157,6.567c2.292-2.377,4.629-4.819,5.983-7.83c1.355-3.012,1.557-6.758-0.338-9.462
								c-7.252,4.282-14.06,9.317-20.278,14.998c-0.597,0.545-1.211,1.132-1.455,1.903c-0.276,0.871-0.029,1.812,0.218,2.691
								c0.957,3.406,1.915,6.812,2.872,10.217c-1.502-3.02-3.34-5.873-5.467-8.491c-8.475,12.54-12.095,28.275-9.952,43.258"/>
						</g>
						<g>
							<path style="fill:#ABC6FF;" d="M103.381,378.06c0.165-6.077-1.091-12.188-3.641-17.706c-1.96-4.242-5.669-8.621-10.307-8.055
								c-2.691,0.329-4.872,2.273-6.783,4.196c-6.083,6.119-11.408,12.989-15.818,20.406c-2.089,3.514-4.014,7.29-4.266,11.37
								c6.991-5.845,8.373-17.035,16.263-21.595c0.748-0.432,1.774-0.763,2.407-0.174c1.734,1.611-3.397,4.374-1.757,6.08
								c2.065-2.141,4.131-4.281,6.196-6.422c0.467-0.484,0.971-0.991,1.624-1.153c1.098-0.273,2.158,0.502,3.002,1.255
								c4.195,3.745,7.765,8.19,10.516,13.095"/>
						</g>
						<g>
							<path style="fill:#ABC6FF;" d="M107.418,352.99c-0.195-8.74-2.507-17.425-6.683-25.105c0.74,4.497,0.435,9.162-0.885,13.525
								c0.183-5.822,0.22-12.139-3.248-16.818c-1.47-1.983-3.465-3.505-5.468-4.948c-6.672-4.807-13.746-9.054-21.126-12.682
								c1.522,5.806,3.044,11.611,4.566,17.416c0.114,0.436,0.246,0.901,0.591,1.192c0.397,0.335,0.965,0.347,1.484,0.343
								c2.522-0.02,5.044-0.041,7.566-0.061c-1.682,1.401-3.68,2.42-5.802,2.957c-0.582,0.147-1.268,0.339-1.467,0.906
								c-0.145,0.413,0.04,0.862,0.227,1.258c5.557,11.734,16.774,20.625,29.467,23.357"/>
						</g>
						<g>
							<g>
								<g>
									<path style="fill:#FFFFFF;" d="M130.923,327.049c-0.548,3.811-0.697,7.658-0.42,11.499c0.042,0.584,0.958,0.589,0.916,0
										c-0.27-3.754-0.149-7.529,0.387-11.255C131.888,326.716,131.006,326.467,130.923,327.049L130.923,327.049z"/>
								</g>
							</g>
							<g>
								<g>
									<path style="fill:#FFFFFF;" d="M127.095,329.904c0.389,3.425,0.777,6.85,1.166,10.275c0.066,0.579,0.982,0.586,0.916,0
										c-0.389-3.425-0.777-6.85-1.166-10.275C127.945,329.326,127.029,329.319,127.095,329.904L127.095,329.904z"/>
								</g>
							</g>
							<g>
								<g>
									<path style="fill:#FFFFFF;" d="M112.956,374.939c5.683-14.519,13.46-28.183,23.046-40.479
										c0.358-0.459-0.285-1.112-0.647-0.647c-9.691,12.431-17.537,26.206-23.282,40.883
										C111.858,375.244,112.743,375.482,112.956,374.939L112.956,374.939z"/>
								</g>
							</g>
							<g>
								<g>
									<path style="fill:#FFFFFF;" d="M95.049,335.31c-0.362-3.789-0.723-7.578-1.085-11.366c-0.056-0.581-0.972-0.587-0.916,0
										c0.362,3.789,0.723,7.578,1.085,11.366C94.189,335.891,95.105,335.897,95.049,335.31L95.049,335.31z"/>
								</g>
							</g>
							<g>
								<g>
									<path style="fill:#FFFFFF;" d="M89.322,321.359c1.407,3.607,2.345,7.383,2.763,11.232c0.063,0.579,0.979,0.586,0.916,0
										c-0.427-3.934-1.357-7.788-2.796-11.476C89.993,320.573,89.108,320.809,89.322,321.359L89.322,321.359z"/>
								</g>
							</g>
							<g>
								<g>
									<path style="fill:#FFFFFF;" d="M105.71,350.844c-4.068-8.812-10.96-16.174-19.476-20.827
										c-0.517-0.283-0.98,0.508-0.462,0.79c8.393,4.586,15.14,11.816,19.148,20.499
										C105.166,351.84,105.956,351.376,105.71,350.844L105.71,350.844z"/>
								</g>
							</g>
							<g>
								<g>
									<path style="fill:#FFFFFF;" d="M89.998,357.713c-1.985,1.985-3.969,3.969-5.954,5.954c-0.417,0.417,0.23,1.065,0.647,0.647
										c1.985-1.985,3.969-3.969,5.954-5.954C91.063,357.944,90.415,357.296,89.998,357.713L89.998,357.713z"/>
								</g>
							</g>
							<g>
								<g>
									<path style="fill:#FFFFFF;" d="M86.928,357.229c-5.275,3.487-10.096,7.623-14.336,12.315
										c-0.394,0.436,0.251,1.086,0.647,0.647c4.188-4.635,8.94-8.727,14.151-12.172
										C87.879,357.696,87.421,356.903,86.928,357.229L86.928,357.229z"/>
								</g>
							</g>
							<g>
								<g>
									<path style="fill:#FFFFFF;" d="M86.244,358.965c1.724-1.115,3.936-0.707,5.524,0.472c1.613,1.198,2.616,3.022,3.466,4.8
										c1.96,4.101,3.402,8.44,4.371,12.878c0.126,0.575,1.008,0.332,0.883-0.243c-1.08-4.947-2.701-9.954-5.132-14.415
										c-0.99-1.817-2.326-3.591-4.254-4.474c-1.707-0.782-3.71-0.848-5.32,0.192C85.289,358.493,85.747,359.286,86.244,358.965
										L86.244,358.965z"/>
								</g>
							</g>
						</g>
					</g>
					<g>
						<path style="fill:#3041B0;" d="M95.064,420.952h22.522c6.815,0,12.34-5.525,12.34-12.34v-33.114H82.724v33.114
							C82.724,415.427,88.248,420.952,95.064,420.952z"/>
						<path style="opacity:0.28;fill:#3041B0;" d="M95.064,420.952h22.522c6.815,0,12.34-5.525,12.34-12.34v-33.114"/>
					</g>
					<g>
						<g style="opacity:0.59;">
							<g>
								<path style="fill:#FFFFFF;" d="M130.923,389.705c-6.38,0.605-12.396,2.585-18.216,5.2
									c-5.681,2.552-11.172,5.548-17.07,7.592c-3.705,1.284-7.526,2.161-11.432,2.532c-0.581,0.055-0.587,0.971,0,0.916
									c6.38-0.605,12.396-2.585,18.216-5.2c5.681-2.552,11.172-5.548,17.07-7.592c3.705-1.284,7.526-2.161,11.432-2.532
									C131.505,390.566,131.51,389.65,130.923,389.705L130.923,389.705z"/>
							</g>
						</g>
					</g>
				</g>
			</g>
		</g>
	</g>
	<g>
		<g>
			<g>
				<g>
					<g>
						<path style="fill:#D4E2FF;" d="M314.743,245.027c-0.471,24.416-0.233,48.845,0.727,73.246
							c0.241,6.121,0.527,12.24,0.858,18.357c0.293,5.419,0.315,10.983,1.245,16.34c0.756,4.356,2.559,8.759,6.499,11.13
							c3.193,1.922,7.547,2.425,10.552-0.131c3.637-3.094,3.336-8.407,4.356-12.658c1.269-5.287,5.741-9.259,11.263-9.449
							c0.823-0.028,0.827-1.31,0-1.282c-4.064,0.14-7.885,2.173-10.295,5.45c-2.536,3.448-2.515,7.699-3.418,11.71
							c-0.466,2.071-1.262,4.146-3.008,5.471c-1.674,1.27-3.859,1.481-5.859,1.001c-4.839-1.163-7.46-5.411-8.532-9.993
							c-1.218-5.207-1.144-10.787-1.438-16.102c-0.325-5.868-0.608-11.739-0.849-17.612c-0.486-11.828-0.804-23.662-0.954-35.499
							c-0.168-13.327-0.12-26.656,0.137-39.981C316.041,244.202,314.759,244.202,314.743,245.027L314.743,245.027z"/>
					</g>
				</g>
				<rect x="341.708" y="337.456" style="fill:#FFFFFF;" width="11.936" height="11.935"/>
				<rect x="341.708" y="321.258" style="fill:#D4E2FF;" width="11.936" height="11.935"/>
				<rect x="341.708" y="354.507" style="fill:#D4E2FF;" width="11.936" height="11.935"/>
			</g>
			<g>
				<g>
					<path style="fill:none;stroke:#FFFFFF;stroke-width:2;stroke-miterlimit:10;" d="M179.385,246.014V119.962
						c0-7.096,5.753-12.849,12.849-12.849h181.809c7.096,0,12.849,5.753,12.849,12.849v126.053c0,7.096-5.753,12.849-12.849,12.849
						H192.233C185.137,258.863,179.385,253.111,179.385,246.014z"/>
					<path style="fill:#D4E2FF;" d="M366.683,254.282H197.455c-7.016,0-12.703-5.687-12.703-12.703V124.397
						c0-7.016,5.687-12.703,12.703-12.703h169.228c7.016,0,12.703,5.687,12.703,12.703v117.182
						C379.386,248.595,373.699,254.282,366.683,254.282z"/>
					<path style="opacity:0.48;fill:#FFFFFF;stroke:#FBF9F5;stroke-width:0.2776;stroke-miterlimit:10;" d="M244.231,111.171h58.296
						c11.201,11.546,57.338,123.398,72.362,138.038c-2.2,3.09-5.59,5.073-9.395,5.073h-46.921
						C304.971,243.128,246.308,113.464,244.231,111.171z"/>
					<path style="opacity:0.48;fill:#FFFFFF;stroke:#FBF9F5;stroke-width:0.2776;stroke-miterlimit:10;" d="M261.078,253.845
						c-1.754-1.963-3.505-3.93-5.253-5.9c-14.028-15.815-65.993-136.251-62.461-136.251h25.854c0,0.12,68.37,142.848,68.001,142.588
						h-25.855C261.297,254.132,261.203,253.985,261.078,253.845z"/>
					<path style="fill:#18004C;" d="M184.752,240.845c0,7.421,5.376,13.438,12.008,13.438h171.838
						c6.632,0,12.008-6.016,12.008-13.438H184.752z"/>
				</g>
				<g>
					<path style="fill:#3041B0;" d="M201.648,122.494c0-1.709-1.385-3.094-3.094-3.094s-3.094,1.385-3.094,3.094
						c0,1.709,1.385,3.094,3.094,3.094S201.648,124.203,201.648,122.494z"/>
					<path style="fill:#FFFFFF;" d="M212.479,122.494c0-1.709-1.385-3.094-3.094-3.094s-3.094,1.385-3.094,3.094
						c0,1.709,1.385,3.094,3.094,3.094S212.479,124.203,212.479,122.494z"/>
					<path style="fill:#EE3A58;" d="M223.309,122.494c0-1.709-1.385-3.094-3.094-3.094c-1.709,0-3.094,1.385-3.094,3.094
						c0,1.709,1.385,3.094,3.094,3.094C221.923,125.588,223.309,124.203,223.309,122.494z"/>
				</g>
			</g>
			<g>
				<g>
					<path style="fill:#FFFFFF;" d="M250.236,202.206c14.64-6.107,21.558-22.926,15.451-37.566
						c-6.107-14.64-22.926-21.558-37.566-15.451c-14.641,6.107-21.558,22.926-15.451,37.566
						C218.777,201.395,235.596,208.313,250.236,202.206z"/>
					<path style="fill:#3041B0;" d="M250.236,202.206c-14.64,6.107-31.459-0.811-37.566-15.451
						c-6.107-14.64,0.811-31.46,15.451-37.566L250.236,202.206z"/>
					<path style="fill:#18004C;" d="M250.399,202.273c14.64-6.107,21.558-22.926,15.451-37.566l-26.624,11.106L250.399,202.273z"/>
					<path style="fill:#EE3A58;" d="M239.37,176.158l32.188-13.427c-3.692-8.851-10.622-15.367-18.841-18.747L239.37,176.158z"/>
				</g>
				<g>
					<g style="opacity:0.54;">
						<polyline style="fill:#3041B0;" points="294.246,201.954 302.98,201.954 302.98,218.564 294.246,218.564 						"/>
					</g>
					<g>
						<rect x="308.279" y="186.315" style="fill:#3041B0;" width="8.735" height="32.249"/>
					</g>
					<g style="opacity:0.54;">
						<rect x="321.596" y="183.052" style="fill:#3041B0;" width="8.305" height="35.512"/>
					</g>
					<g>
						<rect x="335.915" y="169.129" style="fill:#3041B0;" width="8.305" height="49.435"/>
					</g>
					<g>
						<polyline style="fill:none;stroke:#EE3A58;stroke-width:0.2452;stroke-miterlimit:10;" points="291.084,195.085 
							306.979,179.334 322.014,179.334 336.334,158.141 						"/>
						<polygon style="fill:#EE3A58;stroke:#EE3A58;stroke-width:0.8659;stroke-miterlimit:10;" points="336.747,159.828 
							336.747,157.982 334.902,157.982 						"/>
						<path style="fill:#EE3A58;stroke:#EE3A58;stroke-width:0.8659;stroke-miterlimit:10;" d="M291.944,194.656
							c0-0.395-0.32-0.716-0.716-0.716c-0.395,0-0.716,0.32-0.716,0.716s0.32,0.716,0.716,0.716
							C291.623,195.372,291.944,195.051,291.944,194.656z"/>
					</g>
					
						<line style="fill:none;stroke:#18293D;stroke-width:0.8659;stroke-miterlimit:10;" x1="288.117" y1="218.597" x2="357.221" y2="218.597"/>
				</g>
				<g>
					<g style="opacity:0.5;">
						<rect x="289.649" y="129.84" style="fill:#3041B0;" width="6.393" height="6.393"/>
						<rect x="289.649" y="142.626" style="fill:#3041B0;" width="6.393" height="6.393"/>
					</g>
					
						<line style="fill:none;stroke:#FFFFFF;stroke-width:1.2817;stroke-miterlimit:10;" x1="301.157" y1="133.676" x2="345.25" y2="133.676"/>
					
						<line style="fill:none;stroke:#FFFFFF;stroke-width:1.2817;stroke-miterlimit:10;" x1="301.157" y1="147.102" x2="345.25" y2="147.102"/>
				</g>
			</g>
		</g>
		<g>
			<g>
				<ellipse style="fill:#ABC6FF;" cx="112.804" cy="438.94" rx="23.278" ry="2.86"/>
				<ellipse style="fill:#ABC6FF;" cx="176.319" cy="438.94" rx="23.278" ry="2.86"/>
			</g>
			<g>
				<g>
					<g>
						<path style="fill:#FEB28C;" d="M233.383,199.225c0,0-23.2,35.489-29.5,31.044c0,0-10.142-5.174-6.508-26.003
							c0.007-2.023,0.017-3.426-0.055-3.743c0,0-2.033-18.485-5.413-22.744c-0.371-0.467-1.02-3.416-0.871-3.453
							c10.324-2.581,14.461,19.411,17.307,31.418c0.118,0.497,19.638-14.732,19.638-14.732s10.323-13.649,11.043-12.869
							c1.043,1.13-2.956,7.217-2.956,7.217s0.261,0.696,1.043,1.043c0.783,0.348,1.217,0.87,1.478,1.913
							c0.261,1.044,1.304,1.652,1.478,2.261C240.241,191.185,235.586,197.631,233.383,199.225z"/>
						<path style="fill:#3041B0;" d="M219.549,195.653c-5.786,4.468-11.13,10.415-11.207,10.09
							c-2.846-12.007-6.983-33.999-17.307-31.418c-0.149,0.037,0.501,2.986,0.871,3.453c3.38,4.259,5.413,22.744,5.413,22.744
							c0.072,0.317,0.061,1.72,0.054,3.743c-3.634,20.83,6.508,26.003,6.508,26.003c4.821,3.401,19.33-14.404,25.975-23.975
							C227.35,203.332,222.038,198.632,219.549,195.653z"/>
						<path style="fill:#FEB28C;" d="M228.328,190.924c0,0,2.087-5.913,2.956-5.739c0.869,0.174,4.695,1.826,4.608,3.304
							c-0.087,1.478-3.391,0.261-3.391,0.261s0.609,3.304-1.043,3.739C229.807,192.924,228.328,190.924,228.328,190.924z"/>
						<g>
							<path style="fill:#F79988;" d="M233.458,188.49c0,0-0.087,1.478,1.13,1.739c0,0,0.261,1.565,1.826,1.217
								c0,0-0.435,0.695,0.522,0.87C236.936,192.316,232.85,196.75,233.458,188.49z"/>
							<g>
								<path style="fill:#EC7965;" d="M232.682,185.607c0.834,0.271,1.642,0.611,2.447,0.962c0.411,0.182,0.786,0.324,1.209,0.618
									c0.197,0.151,0.415,0.34,0.522,0.671c0.115,0.335-0.04,0.738-0.257,0.934c-0.863,0.692-1.845,0.708-2.722,0.667
									c-0.219-0.021-0.472-0.037-0.479-0.019c-0.028-0.093-0.005,0.219,0.024,0.421c0.027,0.438,0.076,0.872,0.083,1.313
									l-0.039,0.007l-0.247-1.282c-0.009-0.204-0.17-0.441,0.007-0.65c0.204-0.149,0.442-0.08,0.652-0.095
									c0.85-0.001,1.788-0.074,2.444-0.64c0.153-0.142,0.232-0.357,0.172-0.555c-0.057-0.199-0.213-0.359-0.379-0.49
									c-0.341-0.259-0.756-0.421-1.134-0.631l-2.32-1.196L232.682,185.607z"/>
							</g>
							<g>
								<path style="fill:#EC7965;" d="M236.169,185.199c-0.01,0.206-0.074,0.363-0.146,0.512c-0.073,0.149-0.187,0.26-0.279,0.391
									c-0.132,0.094-0.241,0.211-0.393,0.287c-0.151,0.077-0.311,0.147-0.524,0.167l-0.029-0.026
									c0.431-0.467,0.879-0.919,1.342-1.356L236.169,185.199z"/>
							</g>
							<g>
								<path style="fill:#EC7965;" d="M237.935,187.393c-0.193,0.437-0.467,0.82-0.767,1.179c-0.301,0.359-0.658,0.663-1.012,0.97
									c-0.394,0.265-0.752,0.534-1.21,0.738c-0.236,0.093-0.503,0.17-0.783,0.133c-0.263-0.053-0.532-0.201-0.614-0.445
									l0.032-0.023c0.293,0.371,0.852,0.3,1.219,0.069c0.389-0.23,0.758-0.503,1.117-0.781c0.723-0.552,1.392-1.177,1.99-1.865
									L237.935,187.393z"/>
							</g>
							<g>
								<path style="fill:#EC7965;" d="M234.537,190.225c0.223,0.48,0.457,0.998,0.816,1.123c0.332,0.139,0.75-0.03,1.123-0.33
									c0.397-0.256,0.75-0.648,1.142-0.991c0.39-0.35,0.78-0.704,1.215-1.028l0.031,0.024c-0.327,0.414-0.669,0.815-1.021,1.208
									c-0.356,0.388-0.709,0.785-1.137,1.104c-0.411,0.299-1,0.567-1.503,0.279c-0.487-0.293-0.608-0.882-0.705-1.382
									L234.537,190.225z"/>
							</g>
							<g>
								<path style="fill:#EC7965;" d="M236.347,191.186c0.109,0.308,0.273,0.583,0.423,0.837c0.077,0.123,0.18,0.234,0.251,0.285
									c0.01,0.023,0.131,0.039,0.261,0.041c0.254-0.026,0.491-0.018,0.831-0.122c0.366-0.027,0.548-0.016,0.895-0.185l0.029,0.026
									c-0.193,0.27-0.522,0.41-0.831,0.478c-0.299,0.103-0.624,0.211-0.956,0.173c-0.159-0.021-0.339-0.042-0.464-0.171
									c-0.117-0.122-0.193-0.269-0.259-0.418c-0.123-0.3-0.216-0.615-0.22-0.945L236.347,191.186z"/>
							</g>
						</g>
					</g>
					<g>
						<path style="fill:#18004C;" d="M185.963,169.881l5.715-28.526c0.277-2.222-3.743-7.542-5.692-8.658
							c-5.335-3.057-11.923-3.495-17.944-2.245c-19.624,4.077-11.676,38.764,8.609,33.11"/>
						<path style="fill:#FEB28C;" d="M170.897,149.816c0.009,0.296-0.226,0.54-0.522,0.539c-1.238-0.005-4.094-0.269-4.497,2.968
							c-0.408,3.273,2.711,5.115,4.587,5.217c0.542,0.03,1.791,0.14,2.159,0.54c1.128,1.228,1.659,3.91,2.527,7.254
							c1.918,7.386-3.883,10.758-3.883,10.758s19.345,9.511,19.165-0.023c0,0-1.529-17.539-1.439-17.629
							c1.51-1.51,7.376-2.159,3.688-14.661c-3.416-11.582-11.913-10.757-14.073-10.375
							C176.786,134.726,170.458,135.123,170.897,149.816z"/>
						<path style="fill:#18004C;" d="M186.184,133.357c0,0-6.762,18.844-15.962,19.066
							C170.223,152.423,164.148,131.198,186.184,133.357z"/>
						<g>
							<path style="fill:#EC7965;" d="M167.285,154.261c0,0,1.945-4.103,4.413,1.395"/>
							<path style="fill:#F79988;" d="M181.652,149.83c1.605-0.036,2.935,1.236,2.971,2.84c0.036,1.605-1.236,2.935-2.84,2.971
								c-1.605,0.036-2.935-1.236-2.971-2.84C178.775,151.196,180.047,149.866,181.652,149.83z"/>
							<path style="fill:#F79988;" d="M193.762,150.915c-1.33-0.241-2.353-1.391-2.384-2.795c-0.024-1.083,0.546-2.04,1.413-2.56
								C192.79,145.56,194.032,148.776,193.762,150.915z"/>
							<path style="fill:#FFFFFF;" d="M191.316,149.417l-4.431,2.207c0,0,2.168,1.577,3.339,0.714
								C191.395,151.475,191.316,149.417,191.316,149.417z"/>
							<path style="fill:#EC7965;" d="M187.924,146.199l0.701,3.163l1.54-0.68c0.284-0.126,0.33-0.509,0.084-0.698L187.924,146.199z
								"/>
							<path style="fill:#1E274D;" d="M182.238,145.013c-0.384,0.537-0.162-1.337,0.47-1.768s1.446-0.338,1.818,0.207
								C184.526,143.452,183.161,143.723,182.238,145.013z"/>
							<path style="fill:#1E274D;" d="M190.595,141.851c0.636,0.178-0.71-1.145-1.473-1.086c-0.763,0.059-1.339,0.641-1.288,1.299
								C187.833,142.064,189.067,141.422,190.595,141.851z"/>
							<path style="fill:#1E274D;" d="M184.794,147.34c0.214,0.53,0.595,0.875,0.852,0.771c0.257-0.104,0.292-0.617,0.078-1.147
								c-0.214-0.53-0.595-0.875-0.852-0.771C184.615,146.297,184.58,146.81,184.794,147.34z"/>
							<path style="fill:#1E274D;" d="M188.898,145.385c0.204,0.506,0.568,0.836,0.814,0.737c0.245-0.099,0.279-0.589,0.074-1.095
								c-0.204-0.506-0.569-0.836-0.814-0.736C188.727,144.389,188.694,144.88,188.898,145.385z"/>
						</g>
						<path style="fill:#EC7965;" d="M188.994,159.439c0,0-5.523,1.055-8.311,0.875
							C177.895,160.135,189.621,166.389,188.994,159.439z"/>
						<g>
							<path style="fill:#EE3A58;" d="M174.479,158.597c0,1.379-1.117,2.496-2.496,2.496c-1.379,0-2.496-1.117-2.496-2.496
								c0-1.379,1.118-2.496,2.496-2.496C173.362,156.101,174.479,157.218,174.479,158.597z"/>
							<path style="fill:#EE3A58;" d="M174.479,163.589c0,1.379-1.117,2.496-2.496,2.496c-1.379,0-2.496-1.118-2.496-2.496
								c0-1.378,1.118-2.496,2.496-2.496C173.362,161.093,174.479,162.21,174.479,163.589z"/>
						</g>
					</g>
					<g>
						<g>
							<path style="fill:#F5826B;" d="M177.649,412.802l-1.141,16.918c0,0,3.428,10.066,6.611,6.169
								c3.183-3.897,6.334-5.956,6.334-5.956l1.045-15.78L177.649,412.802z"/>
							<path style="fill:#FEB28C;" d="M182.702,415.11l0.55,20.644c0,0-10.074,1.513-6.331-5.23l0.062-19.052L182.702,415.11z"/>
							<path style="fill:#F5826B;" d="M139.592,414.92l-4.723,15.14c0,0-3.595,3.152-4.892,3.071
								c-2.36-0.148-3.598-4.221-3.598-4.221l-0.389-13.99H139.592z"/>
							<path style="fill:#FEB28C;" d="M132.788,410.874l-3.303,25.048c0,0-6.771,1.788-3.028-4.954l-0.826-19.268L132.788,410.874z"
								/>
							<path style="fill:#EE3A58;" d="M190.503,429.855l12.712,10.303c0.65,0.483,0.186,1.296-0.744,1.304l-18.764,0.152
								c-0.452,0.004-0.857-0.202-1.008-0.511l-1.415-2.901c-0.409-0.838-1.223-0.906-1.149-0.018l-0.693,2.801
								c0.037,0.441-4.449,0.321-4.488-0.081c-0.246-2.491,0.273-10.636,0.719-12.904c0.064-0.325,0.397-0.585,0.841-0.649l0.002,0
								c0.398-0.058,0.805,0.053,1.049,0.289c1.266,1.225,5.316,4.913,7.475,4.166c1.446-0.5,3.32-1.396,3.905-1.912
								C189.339,429.545,190.069,429.532,190.503,429.855z"/>
							<path style="fill:#EE3A58;" d="M126.204,428.386l-7.218,12.09c-0.771,1.176-0.342,2.579,1.051,3.408
								c2.257,1.343,4.101,4.023,5.521,4.063c2.566,0.071,6.555-2.631,8.88-3.645c1.56-0.68,2.782-1.677,2.589-2.982l-1.795-12.127
								c-0.022-0.15-0.287-0.205-0.417-0.087l-2.764,2.505c-0.906,0.821-3.363,0.711-3.973-0.272
								c-0.436-0.701-1.457-2.963-1.457-2.963C126.529,428.255,126.286,428.261,126.204,428.386z"/>
						</g>
						<path style="fill:#18004C;" d="M165.844,225.581c-4.538,8.926-9.538,17.92-13.135,30.594
							c-4.023,14.177-26.544,136.31-28.266,162.28c4.499,1.085,14.117,1.156,16.96,0.998c9.045-25.919,33.033-112.541,36.911-128.87
							c0.596-2.51,4.474-1.959,4.172,0.603c-2.201,18.646-7.164,96.01-8.826,126.271c2.36,1.201,17.892,0.674,20.618,0.332
							c2.964-31.982,25.574-152.963,1.829-192.209C185.247,224.084,182.637,225.083,165.844,225.581z"/>
						<g>
							<path style="fill:none;stroke:#FFFFFF;stroke-width:0.4233;stroke-miterlimit:10;" d="M194.535,226.925
								c0,0,10.52,26.608,10.52,60.388c0,33.78-14.438,130.477-14.438,130.477"/>
							
								<line style="fill:none;stroke:#FFFFFF;stroke-width:0.4233;stroke-miterlimit:10;" x1="128.101" y1="418.123" x2="167.507" y2="226.247"/>
						</g>
						<path style="opacity:0.21;fill:#1E274D;" d="M197.022,227.182l-46.531,37.085c0,0,5.099-23.278,15.519-38.353L197.022,227.182
							z"/>
					</g>
					<g>
						<path style="fill:#3041B0;" d="M190.286,173.331c0.831,0.966,12.681,20.9,12.304,28.418
							c-0.379,7.574-6.056,24.023-5.653,25.162c0,0,0.333,1.829-31.591-0.111c-1.123-12.716-4.899-40.054-1.552-49.438
							c0,0,5.321-1.774,11.528-5.986C175.321,171.377,191.062,180.91,190.286,173.331z"/>
					</g>
					<g>
						<path style="fill:#3041B0;" d="M166.009,177.684c-2.636,2.455-4.432,4.778-4.432,4.778
							c-3.348,9.384,2.646,31.622,3.769,44.339c14.44,0.877,22.268,0.983,26.524,0.836
							C182.873,211.184,174.219,194.548,166.009,177.684z"/>
					</g>
					<g>
						<g>
							<path style="fill:#FFFFFF;" d="M212.998,233.408l-31.263,38.699l-25.063-20.247l19.055-20.115l-0.094-1.179
								c-0.101-1.273,0.29-2.536,1.092-3.529l0,0l6.954-8.609c2.35-2.909,6.614-3.362,9.524-1.012L212.998,233.408z"/>
						</g>
						<g>
							<path style="fill:#EE3A58;" d="M212.333,230.415l-31.263,38.699l-25.062-20.247l19.055-20.115l-0.094-1.179
								c-0.101-1.273,0.29-2.536,1.092-3.529h0l6.954-8.609c2.35-2.909,6.614-3.363,9.524-1.012L212.333,230.415z"/>
						</g>
						<g>
							<path style="fill:#FEB28C;" d="M160.911,217.49c5.264,6.802,25.599,25.69,27.056,26.661c2.475,1.648,6.01,2.497,7.809,2.899
								c0.398,0.089,1.348,0.458,2.316,1.686c0.313,0.397,0.754,0.649,1.116,0.959c0.798,0.682,0.435,1.993-0.593,2.205l0,0
								c-1.102-0.755-3.594-2.514-3.094-2.067c2.804,2.509,6.111,6.014,4.84,6.85c-0.626,0.412-5.273,4.948-9.805,3.178
								c-0.867-0.339-21.446-10.764-45.331-30.452c-2.607-2.149-3.791-5.578-3.091-8.884c2.96-13.975,18.111-48.26,26.757-42.939
								C177.002,182.576,160.911,217.49,160.911,217.49z"/>
						</g>
						<g>
							<path style="fill:#3041B0;" d="M182.872,239.616c-6.768-6.259-18.203-17.271-21.961-22.127c0,0,19.011-32.831,7.981-39.905
								c-10.198-6.54-24.863,28.701-27.823,42.676c-0.7,3.305,1.051,7.495,3.658,9.644c11.487,9.469,22.128,17.521,30.261,22.613
								C177.434,248.631,180.443,243.512,182.872,239.616z"/>
						</g>
					</g>
				</g>
			</g>
		</g>
	</g>
	<g>
		<g>
			<g>
				<path style="fill:#03163C;" d="M429.245,420.975c3.899-6.139,10.15-9.503,17.962-9.503h13.784
					c7.478,0,14.083,3.734,18.054,9.438L429.245,420.975z"/>
				<path style="fill:none;stroke:#0D004F;stroke-width:3.2973;stroke-miterlimit:10;" d="M425.224,439.981v-6.527
					c0-12.14,9.842-21.982,21.982-21.982h13.784c12.14,0,21.982,9.842,21.982,21.982v6.527"/>
				<g>
					
						<ellipse transform="matrix(0.7071 -0.7071 0.7071 0.7071 -181.6131 426.8885)" style="fill:#03163C;" cx="424.493" cy="432.671" rx="7.31" ry="7.31"/>
					<circle style="fill:#FFFFFF;" cx="424.493" cy="432.671" r="3.506"/>
				</g>
				
					<line style="fill:none;stroke:#03163C;stroke-width:7.6937;stroke-miterlimit:10;" x1="454.464" y1="355.917" x2="454.464" y2="410.741"/>
				<path style="fill:#0D004F;" d="M463.967,411.472h-19.006l0,0c0-3.633,2.945-6.579,6.579-6.579h5.848
					C461.021,404.893,463.967,407.839,463.967,411.472L463.967,411.472z"/>
				<g>
					
						<ellipse transform="matrix(0.9871 -0.1598 0.1598 0.9871 -62.9501 82.6322)" style="fill:#03163C;" cx="482.242" cy="432.671" rx="7.31" ry="7.31"/>
					<path style="fill:#FFFFFF;" d="M486.114,432.671c0-1.937-1.57-3.506-3.506-3.506c-1.937,0-3.507,1.57-3.507,3.506
						c0,1.937,1.57,3.507,3.507,3.507C484.544,436.177,486.114,434.607,486.114,432.671z"/>
				</g>
			</g>
			<path style="fill:#0D004F;" d="M493.083,236.709l-35.482-1.317l-28.612,107.524l-12.114,4.038c-3.955,0,4.326,5.226,4.326,9.181
				l5.744,0.001l62.336,0.042c4.986,0.003,9.274-3.53,10.224-8.424l15.995-82.379C518.419,250.963,507.774,237.351,493.083,236.709z
				"/>
			<path style="fill:#C2D6FF;" d="M491.496,348.631l-63.596-2.193l12.458-97.599c1.145-7.906,8.073-13.672,16.056-13.363
				l31.824,1.234c14.691,0.641,25.336,14.253,22.418,28.666L491.496,348.631z"/>
			<g>
				
					<line style="fill:none;stroke:#0D004F;stroke-width:3.0112;stroke-miterlimit:10;" x1="495.692" y1="226.507" x2="493.083" y2="236.709"/>
				
					<line style="fill:none;stroke:#0D004F;stroke-width:3.0112;stroke-miterlimit:10;" x1="472.661" y1="226.507" x2="470.052" y2="236.709"/>
				<g>
					<path style="fill:#0D004F;" d="M502.844,228.176h-45.203l9.68-28.037h41.022c3.448,0,5.869,3.397,4.744,6.656l-6.448,18.676
						C506.08,227.09,504.556,228.176,502.844,228.176z"/>
					<path style="fill:#FFFFFF;stroke:#FFFFFF;stroke-miterlimit:10;" d="M497.837,227.842h-45.203l9.68-28.038h41.022
						c3.448,0,5.869,3.397,4.744,6.656l-6.448,18.676C501.073,226.756,499.549,227.842,497.837,227.842z"/>
				</g>
			</g>
		</g>
		<g>
			<ellipse style="fill:#ABC6FF;" cx="351.568" cy="441.733" rx="40.57" ry="1.663"/>
			<g>
				<g>
					<g>
						<g>
							<g>
								<g>
									<g>
										<path style="fill:#FFAF99;" d="M360.614,425.876l4.921-11.744h16.627l-1.912,12.245l0,0
											c-4.911,5.628-11.883,10.448-17.043,5.047L360.614,425.876z"/>
										<g>
											<path style="fill:#CE3052;" d="M380.747,424.462c0,0,2.389,17.921,0.422,18.074l-46.397,0.376
												c0,0,3.238-8.229,12.164-9.862c11.616-2.125,13.944-8.36,13.944-8.36s3.242,3.991,4.532,5.199
												c3.105,2.91,8.046,2.56,10.915-0.583L380.747,424.462z"/>
										</g>
									</g>
									<g>
										<path style="fill:#18004C;" d="M480.59,316.241v0.003c0,18.211-14.623,32.974-32.662,32.974h-35.564
											c-2.077,0-3.267,2.397-5.927,7.718c0,0-24.193,63.266-24.608,63.266c0,0-20.825,0.326-20.926,0.095l14.848-81.811
											c0.373-2.053,0.992-4.063,1.892-5.946c6.244-13.069,16.763-14.378,25.136-14.536L480.59,316.241z"/>
										<path style="fill:none;stroke:#FFFFFF;stroke-width:0.3922;stroke-miterlimit:10;" d="M459.945,317.19
											c0,0,3.215,19.93-15.43,19.288c-10.363-0.357-21.944-0.775-34.752-0.492c-9.102,0.201-14.299,6.651-18.187,18.369
											l-20.554,66.013"/>
									</g>
								</g>
							</g>
							<g>
								<g>
									<polygon style="fill:#FFAF99;" points="401.073,425.876 402.002,413.904 420.127,415.539 420.709,426.378 411.563,436.858 
																			"/>
									<g>
										<path style="fill:#EE3A58;" d="M421.206,424.462c0,0,2.389,17.921,0.422,18.074l-46.397,0.376
											c0,0,3.219-8.339,12.164-9.862c13.504-2.299,12.389-8.546,12.389-8.546l6.927,6.13c2.72,2.407,6.868,2.185,9.316-0.497
											L421.206,424.462z"/>
									</g>
								</g>
								<g>
									<path style="fill:#3041B0;" d="M496.109,316.241v0.003c0,18.211-14.623,32.974-32.662,32.974h-35.564
										c-2.077,0-3.589,1.987-3.056,4.013l-2.883,65.95c0.107,0.405-0.196,0.803-0.611,0.803h-12.366
										c-0.25,0-7.504,0.544-7.605,0.314l-9.636-84.33c-0.253-11.953,3.405-16.608,11.315-17.964L496.109,316.241z"/>
									<path style="fill:none;stroke:#FFFFFF;stroke-width:0.3922;stroke-miterlimit:10;" d="M475.463,317.19
										c0,0,3.215,19.93-15.43,19.288c-10.363-0.357-27.081-0.119-39.888,0.164c-9.102,0.201-15.552,8.96-13.05,17.713
										l4.66,65.111"/>
								</g>
							</g>
						</g>
						<g>
							<g>
								<path style="fill:#FFAF99;" d="M372.811,246.758l-9.727-15.062l7.557-7.926c0,0-3.502-9.953-3.133-11.612
									c0.804-3.617,18.099,25.403,18.099,25.403l12.601,12.517l-15.099,14.691L372.811,246.758z"/>
								<g>
									<g>
										<g>
											<path style="fill:#EA6F46;" d="M378.175,226.362c-1.301,0.635-2.601,1.27-3.902,1.905
												c-0.487,0.238-1.047,0.46-1.365,0.925c-0.314,0.458-0.284,1.038,0.006,1.501c0.31,0.495,0.848,0.754,1.394,0.905
												c0.653,0.18,1.334,0.284,2.005,0.374c1.42,0.19,2.851,0.228,4.279,0.115c0.53-0.042,0.534-0.874,0-0.831
												c-1.189,0.094-2.382,0.088-3.569-0.031c-0.604-0.06-1.203-0.152-1.798-0.271c-0.475-0.095-1.076-0.169-1.447-0.511
												c-0.953-0.879,1.007-1.501,1.565-1.774c1.084-0.529,2.168-1.058,3.251-1.588
												C379.075,226.845,378.654,226.128,378.175,226.362L378.175,226.362z"/>
										</g>
									</g>
									<g>
										<g>
											<path style="fill:#EA6F46;" d="M370.518,224.31c1.022,1.347,1.91,2.789,2.653,4.308c0.099,0.202,0.385,0.257,0.569,0.149
												c0.206-0.12,0.248-0.366,0.149-0.569c-0.743-1.519-1.631-2.961-2.653-4.308c-0.135-0.179-0.358-0.272-0.569-0.149
												C370.491,223.844,370.381,224.13,370.518,224.31L370.518,224.31z"/>
										</g>
									</g>
									<g>
										<g>
											<path style="fill:#EA6F46;" d="M374.005,231.474c0.056,0.253-0.148,0.47-0.357,0.582
												c-0.27,0.144-0.558,0.118-0.836,0.008c-0.655-0.258-1.182-0.873-1.649-1.377c-1.008-1.089-1.833-2.33-2.474-3.668
												c-0.231-0.482-0.948-0.061-0.718,0.42c0.803,1.676,1.908,3.218,3.256,4.499c0.62,0.589,1.437,1.202,2.348,1.02
												c0.788-0.158,1.412-0.888,1.231-1.705C374.691,230.731,373.889,230.952,374.005,231.474L374.005,231.474z"/>
										</g>
									</g>
									<g>
										<g>
											<path style="fill:#EA6F46;" d="M372.26,232.508c-0.121,0.844-0.376,1.801-0.901,2.492
												c-0.511,0.673-1.656-0.478-2.03-0.879c-0.598-0.643-1.081-1.388-1.586-2.103c-0.593-0.84-1.186-1.68-1.779-2.52
												c-0.306-0.434-1.027-0.019-0.718,0.42c0.712,1.008,1.423,2.016,2.135,3.024c0.574,0.812,1.145,1.665,1.922,2.299
												c0.695,0.567,1.805,1.236,2.577,0.429c0.338-0.353,0.549-0.848,0.733-1.293c0.219-0.53,0.366-1.08,0.448-1.647
												C373.136,232.205,372.335,231.979,372.26,232.508L372.26,232.508z"/>
										</g>
									</g>
									<g>
										<g>
											<path style="fill:#EA6F46;" d="M369.159,234.882c-0.1,0.675-0.561,1.278-1.23,1.471c-0.681,0.197-1.41-0.073-1.854-0.619
												c-0.142-0.174-0.441-0.147-0.588,0c-0.172,0.172-0.142,0.413,0,0.588c0.62,0.763,1.718,1.106,2.663,0.833
												c0.923-0.267,1.669-1.098,1.811-2.052c0.033-0.222-0.055-0.447-0.29-0.511
												C369.474,234.538,369.192,234.659,369.159,234.882L369.159,234.882z"/>
										</g>
									</g>
								</g>
							</g>
							<path style="fill:#EE3A58;" d="M431.592,314.736c0,0,12.085-83.311,15.169-88.498c0,0-7.15-3.785-16.683,16.262
								c-9.533,20.047-10.883,25.851-10.883,25.851l-20.988-21.538l-17.139,17.955l38.127,49.568l11.196,1.2"/>
							<g>
								<path style="fill:#EE3A58;" d="M478.78,220.894c0,0,22.462,7.159,25.295,29.184c2.833,22.024-10.073,78.525-10.073,78.525
									s-13.729-5.824-19.395-7.378c-8.374-2.298-14.641-2.422-20.613-2.527l-24.708-0.432l8.745-74.692
									c1.309-5.62,2.007-13.696,7.124-16.919l8.64-5.226l17.106-4.394L478.78,220.894z"/>
								<path style="fill:#E87285;" d="M428.53,313.975c6.517-13.034,57.965-84.258,57.073-89.903
									c6.857,3.948,16.663,11.943,18.472,26.005c2.834,22.024-10.073,78.525-10.073,78.525s-13.729-5.824-19.395-7.379
									c-8.374-2.298-14.641-2.422-20.613-2.527l-28.036-0.221C425.316,317.833,428.209,314.618,428.53,313.975z"/>
							</g>
							<g>
								<path style="fill:#FFAF99;" d="M454.931,296.599l-19.996,5.713c0,0-19.18,5.713-24.484,14.691l45.704-1.224L454.931,296.599
									z"/>
								<path style="fill:#EE3A58;" d="M477.375,222.329c5.086-3.224,24.482,7.554,28.688,28.302
									c4.268,22.246-3.277,66.451-10.55,69.114c-7.273,2.664-38.542-0.703-38.542-0.703s-1.484-19.681-2.448-25.709l24.893-0.816
									C479.415,292.518,473.759,262.109,477.375,222.329z"/>
							</g>
						</g>
						<g>
							<g>
								<path style="fill:#FFAF99;" d="M468.247,200.64l3.279,15.567l-5.985,6.801c-9.315,10.051-10.61,3.401-12.356,2.557
									l1.2-18.261l8.68-3.464L468.247,200.64z"/>
								<path style="fill:#DE7454;" d="M463.065,203.841l-8.68,4.797c0,0-0.933,8.397,1.6,8.664
									c2.119,0.223,9.417-6.572,8.664-11.729"/>
							</g>
							<g>
								<path style="fill:#18004C;" d="M468.312,202.737c0,0,1.167-6.454-0.3-4.648l-3.895-14.482c0,0-2.44,2.8-4.826,4.449
									c-2.385,1.649-7.972,0.723-9.447,0.074c-1.475-0.649-1.174-7.274-1.174-7.274s-9.644-5.321-2.66-12.47
									c6.485-4.822,22.777,5.514,22.777,5.514s5.637-1.42,6.071,5.71c0,0,5.487-1.33-3.076,18.622"/>
								<path style="fill:#FFAF99;" d="M448.497,180.512c-2.909,21.861-2.099,28.354-0.054,30.048
									c2.943,2.438,8.282,0.966,10.88-0.022c4.263-1.621,7.273-6.148,8.208-7.493c0.462-0.664,5.837,0.446,5.111-4.665
									c-0.535-3.766-2.538-2.562-3.556-1.668c-0.297,0.261-0.763,0.135-0.89-0.239c-0.754-2.227-2.214-11.162-4.009-13.325
									c-4.432-5.342-8.035-0.298-11.083,0.201c-4.403,0.72-3.271-1.783-4.403-2.676L448.497,180.512z"/>
								<g>
									<path style="fill:#FFFFFF;" d="M447.135,199.109c0,0,1.643,0.891,5.764,0.693c0,0-2.336,2.826-3.928,2.189
										C447.379,201.355,447.135,199.109,447.135,199.109z"/>
									<path style="fill:#EA6F46;" d="M471.847,197.967l-2.951,1.98C468.895,199.947,470.185,194.9,471.847,197.967z"/>
									<path style="fill:#001C39;" d="M451.496,194.249c-0.027,0.61,0.199,1.115,0.504,1.129c0.305,0.013,0.574-0.47,0.601-1.08
										c0.027-0.61-0.199-1.115-0.504-1.129C451.791,193.155,451.523,193.639,451.496,194.249z"/>
									<path style="fill:#001C39;" d="M447.925,193.551c-0.027,0.61,0.199,1.115,0.504,1.129c0.305,0.013,0.574-0.47,0.6-1.08
										c0.027-0.61-0.199-1.115-0.504-1.129C448.22,192.457,447.952,192.941,447.925,193.551z"/>
									<path style="fill:#001C39;" d="M456.844,190.794c0.794,0.594-0.376-1.988-1.476-2.318c-1.1-0.33-2.223,0.173-2.508,1.123
										C452.861,189.599,454.937,189.366,456.844,190.794z"/>
									<path style="fill:#001C39;" d="M447.444,189.065c1.179-0.098,2.013,0.142,2.013,0.142
										c-0.113-0.916-0.949-1.591-1.967-1.661"/>
									<path style="fill:#EA6F46;" d="M449.618,193.593l-1.889,4.605c-0.031,0.075,0.015,0.16,0.091,0.169l1.981,0.234
										c0.069,0.008,0.128-0.05,0.127-0.124l-0.092-4.84C449.833,193.508,449.667,193.473,449.618,193.593z"/>
								</g>
							</g>
						</g>
					</g>
				</g>
			</g>
		</g>
	</g>
	<g>
		<g>
			<g>
				<path style="fill:#03163C;" d="M573.159,425.102c3.971-6.252,10.337-9.678,18.292-9.678h14.038
					c7.615,0,14.343,3.802,18.387,9.612L573.159,425.102z"/>
				<path style="fill:none;stroke:#0D004F;stroke-width:3.358;stroke-miterlimit:10;" d="M569.065,444.458v-6.647
					c0-12.364,10.023-22.387,22.387-22.387h14.038c12.364,0,22.387,10.023,22.387,22.387v6.647"/>
				<g>
					
						<ellipse transform="matrix(0.7071 -0.7071 0.7071 0.7071 -142.5578 529.8613)" style="fill:#03163C;" cx="568.32" cy="437.013" rx="7.445" ry="7.445"/>
					<path style="fill:#FFFFFF;" d="M571.891,437.013c0-1.972-1.599-3.571-3.571-3.571c-1.972,0-3.571,1.599-3.571,3.571
						c0,1.972,1.599,3.571,3.571,3.571C570.293,440.584,571.891,438.985,571.891,437.013z"/>
				</g>
				
					<line style="fill:none;stroke:#03163C;stroke-width:7.8354;stroke-miterlimit:10;" x1="598.843" y1="358.845" x2="598.843" y2="414.68"/>
				<path style="fill:#0D004F;" d="M608.521,415.424h-19.356l0,0c0-3.7,3-6.7,6.7-6.7h5.956
					C605.521,408.724,608.521,411.724,608.521,415.424L608.521,415.424z"/>
				<g>
					
						<ellipse transform="matrix(0.7071 -0.7071 0.7071 0.7071 -125.3321 571.4477)" style="fill:#03163C;" cx="627.132" cy="437.013" rx="7.445" ry="7.445"/>
					<path style="fill:#FFFFFF;" d="M631.076,437.013c0-1.972-1.599-3.571-3.571-3.571c-1.972,0-3.571,1.599-3.571,3.571
						c0,1.972,1.599,3.571,3.571,3.571C629.477,440.584,631.076,438.985,631.076,437.013z"/>
				</g>
			</g>
			<path style="fill:#0D004F;" d="M638.173,237.443l-36.136-1.341l-29.138,109.504l-12.337,4.112c-4.028,0,4.406,5.322,4.406,9.35
				l5.849,0.001l63.484,0.043c5.078,0.004,9.445-3.595,10.412-8.579l16.29-83.896C663.976,251.959,653.135,238.096,638.173,237.443z
				"/>
			<path style="fill:#C2D6FF;" d="M636.557,351.426l-64.768-2.233l12.687-99.397c1.166-8.052,8.222-13.924,16.351-13.609
				l32.41,1.257c14.962,0.653,25.803,14.516,22.831,29.194L636.557,351.426z"/>
			<g>
				
					<line style="fill:none;stroke:#0D004F;stroke-width:3.0666;stroke-miterlimit:10;" x1="640.83" y1="227.053" x2="638.173" y2="237.443"/>
				
					<line style="fill:none;stroke:#0D004F;stroke-width:3.0666;stroke-miterlimit:10;" x1="617.375" y1="227.053" x2="614.718" y2="237.443"/>
				<g>
					<path style="fill:#0D004F;" d="M648.114,228.752h-46.035l9.858-28.554h41.778c3.512,0,5.977,3.46,4.831,6.779l-6.567,19.02
						C651.409,227.646,649.857,228.752,648.114,228.752z"/>
					<path style="fill:#FFFFFF;stroke:#FFFFFF;stroke-miterlimit:10;" d="M643.015,228.412h-46.035l9.858-28.554h41.778
						c3.512,0,5.977,3.46,4.831,6.779l-6.567,19.02C646.311,227.306,644.759,228.412,643.015,228.412z"/>
				</g>
			</g>
		</g>
		<g>
			<path style="fill:#ABC6FF;" d="M578.361,451.377c0-1.146-35.85-1.995-53.672-1.995c-17.822,0-32.27,0.929-32.27,2.076
				s14.448,2.076,32.27,2.076C542.511,453.533,578.361,452.523,578.361,451.377z"/>
			<g>
				<g>
					<g>
						<g>
							<g>
								<path style="fill:#A64B3D;" d="M537.459,410.121c-1.441,17.288,3.25,25.493,1.662,29.728
									c-1.588,4.235-29.093,9.213-27.206,8.368c5.1-2.284,13.752-10.939,13.752-10.939s0-9.135-1.655-21.943L537.459,410.121z"/>
								<path style="fill:#CE3052;" d="M523.739,427.134l25.581-1.696l-4.215-77.18c0,0,59.515,4.209,62.56-10.339
									c3.045-14.548-0.502-37.292-0.502-37.292h-26.344l-1.911,7.687c0,0-54.182-1.017-57.903,8.457
									C517.281,326.245,514.889,354.071,523.739,427.134z"/>
								<path style="fill:none;stroke:#FFFFFF;stroke-width:0.3922;stroke-miterlimit:10;" d="M593.306,302.388
									c0,1.166,12.439,20.603-1.555,24.101c-13.994,3.499-56.755-2.721-59.476,5.442c-2.721,8.163,1.303,94.394,1.303,94.394"/>
								<path style="fill:#A64B3D;" d="M602.989,302.199c0,0-45.472,12.582-62.003,24.087
									c-16.531,11.505,18.753,109.129,18.753,109.129s-5.542,6.207-12.812,12.575c-1.555,1.362,16.892-3.338,21.228-4.627
									c3.688-1.096,5.3,0.073,2.233-11.663c-4.35-16.65-7.848-90.984-8.569-92.771c-0.721-1.787,59.252,11.433,58.582-5
									S602.989,302.199,602.989,302.199z"/>
								<path style="fill:#EE3A58;" d="M617.041,295.688c0,0,14.144,27.356,9.697,41.686c-6.677,21.511-63.237,14.334-63.237,14.334
									l19.738,66.636l-28.765,8.79c0,0-32.663-91.171-23.752-104.532c7.042-10.559,36.541-10.884,40.279-12.059
									c5.347-1.68,5.979-15.93,5.979-15.93L617.041,295.688z"/>
								<path style="fill:none;stroke:#FFFFFF;stroke-width:0.3922;stroke-miterlimit:10;" d="M602.636,296.946
									c0.389,1.166,14.772,29.155-1.166,33.431c-15.938,4.276-53.256-1.944-55.588,6.22c-2.332,8.163,17.405,87.734,17.405,87.734
									"/>
							</g>
						</g>
						<g>
							<path style="fill:#FFFFFF;" d="M552.201,442.953c0,0-0.887,5.542,5.099,2.217c5.986-3.325,13.967-11.971,13.967-11.971
								l3.017,13.765c0.266,1.214-0.701,2.346-1.942,2.273l0,0c-0.78-0.046-1.45-0.571-1.681-1.318l-1.343-4.342l-0.728,2.848
								c-0.529,2.068-2.224,3.632-4.328,3.994l-18.489,3.175c-3.046,0.609-4.881-3.258-2.484-5.233L552.201,442.953z"/>
							<path style="fill:#FFFFFF;" d="M520.103,442.314c0,0-1.267,5.468,4.934,2.563c6.201-2.905,14.759-10.98,14.759-10.98
								l2.061,13.94c0.182,1.229-0.861,2.292-2.094,2.134l0,0c-0.775-0.1-1.407-0.67-1.586-1.43l-1.041-4.424l-0.923,2.791
								c-0.67,2.027-2.469,3.47-4.593,3.686l-18.664,1.892c-3.08,0.398-4.645-3.587-2.117-5.392L520.103,442.314z"/>
						</g>
						<g>
							<g>
								<g>
									<g>
										<path style="fill:#000307;stroke:#000307;stroke-width:0.7001;stroke-miterlimit:10;" d="M622.925,212.395
											c1.349-4.618,1.422-7.605,0.59-14.393c-0.833-6.788-6.415-7.15-6.415-7.15c-6.203-1.803-19.048-6.814-24.189,1.816
											c-1.269,2.131-5.654,10.246-1.96,14.09c0,0,2.348,14.058,13.109,20.355C608.073,229.462,620.885,219.38,622.925,212.395z"
											/>
									</g>
									<path style="fill:none;stroke:#EE3A58;stroke-miterlimit:10;" d="M600.575,221.429c0.393-3.54-2.158-6.727-5.697-7.12
										c-3.54-0.393-6.727,2.158-7.12,5.697c-0.393,3.54,2.158,6.728,5.697,7.12C596.994,227.519,600.182,224.969,600.575,221.429
										z"/>
									<g>
										<path style="fill:#A64B3D;" d="M615.345,208.442c0.097,0.313,0.086,1.292,0.375,1.169c1.209-0.517,4.074-1.658,5.629,1.56
											c1.572,3.253-3.408,7.887-5.819,5.558c-1.07,3.506-3.583,5.147-3.799,5.716c-0.664,1.749,1.612,15.763,1.437,19.817
											c-0.225,5.21-10.042,15.112-10.042,15.112s-9.025-0.082-7.944-6.755c0,0,3.922-23.677,2.725-24.043
											c-5.098-0.702-9.368-5.335-7.419-17.53c1.421-8.889,1.322-3.449,7.618-12.503
											C603.795,198.268,594.797,208.825,615.345,208.442z"/>
									</g>
								</g>
								<path style="fill:#000307;" d="M597.841,226.583c0,0,5.752-0.469,7.351-1.746
									C605.192,224.837,598.617,231.915,597.841,226.583z"/>
								<path style="fill:#000307;stroke:#003B5A;stroke-width:0;stroke-miterlimit:10;" d="M619.382,254.482"/>
								<g>
									<g>
										<path style="fill:#A64B3D;" d="M613.444,249.026L602.506,244c-4.544-2.088-9.901-1.211-13.542,2.216l-19.822,18.656
											c-0.797-7.307-2.452-17.768-5.796-34.433l1.087-12.576c0,0-0.758-2.221-2.393,0.395c-1.635,2.616-1.635,3.434-1.635,3.434
											s-3.896-2.967-6.966-6.867c-1.38-1.752-2.814-5.445-3.27-6.104c-1.471-2.126-1.471-0.327-1.471,0.49
											s0.164,2.126,0.164,2.126s-1.962-3.924-2.453-2.943c-0.11,0.219,0.003,0.747,0.233,1.421
											c-0.517-0.805-0.991-1.309-1.313-1.148c-0.774,0.387,1.134,7.249,3.533,9.538c0.459,0.438,0.145,0.799-0.436,0.545
											c-1.744-0.763-4.78-5.679-5.45-5.232c-0.863,0.575,4.411,10.275,5.014,11.118c1.635,2.289,5.599,9.427,5.599,9.427
											s-4.884,54.228,5.986,62.351c5.509,4.117,7.991,2.126,9.127-1.688C582.34,284.228,612.563,249.906,613.444,249.026z"/>
										<path style="fill:#3041B0;" d="M602.471,256.674c-0.525-0.115-0.982-0.292-1.385-0.51
											c-6.21-1.274-12.421-2.548-18.631-3.822l-13.313,12.53c-0.718-6.581-0.867-15.888-3.584-29.813
											c-4.016,4.142-9.116,8.601-12.822,13.022c-0.658,16.655-0.46,42.879,6.836,48.332c5.509,4.117,8.48,4.157,12.47,0.333
											c9.527-7.332,23.79-28.295,33.848-39.359C604.75,257.154,603.609,256.923,602.471,256.674z"/>
										<path style="fill:#18004C;" d="M602.471,256.674c-0.525-0.115-0.982-0.292-1.385-0.51
											c-3.863-0.793-7.727-1.585-11.591-2.378c-11.105,13.39-20.666,27.917-29.939,42.613c0.006,0.004,0.011,0.01,0.016,0.014
											c5.509,4.117,8.48,4.157,12.47,0.333c9.527-7.332,23.79-28.295,33.848-39.359
											C604.75,257.154,603.609,256.923,602.471,256.674z"/>
										<g>
											<g>
												<g>
													<path style="fill:#611212;" d="M559.545,221.339c-1.749,1.037-2.895,2.91-3.048,4.934
														c-0.036,0.473,0.702,0.471,0.737,0c0.133-1.761,1.167-3.399,2.682-4.297
														C560.325,221.734,559.955,221.096,559.545,221.339L559.545,221.339z"/>
												</g>
											</g>
										</g>
										<g>
											<g>
												<g>
													<path style="fill:#611212;" d="M548.772,211.094c0.637,2.387,2.174,4.475,4.255,5.804
														c0.401,0.256,0.771-0.382,0.372-0.637c-1.921-1.227-3.328-3.163-3.916-5.363
														C549.361,210.439,548.649,210.634,548.772,211.094L548.772,211.094z"/>
												</g>
											</g>
											<g>
												<g>
													<path style="fill:#611212;" d="M546.235,210.009c0.581,1.532,1.256,3.027,2.034,4.469
														c0.658,1.219,1.356,2.546,2.589,3.272c0.41,0.241,0.782-0.396,0.372-0.637c-1.151-0.677-1.784-1.996-2.392-3.132
														c-0.72-1.347-1.351-2.74-1.893-4.168C546.78,209.373,546.067,209.564,546.235,210.009L546.235,210.009z"/>
												</g>
											</g>
											<g>
												<g>
													<path style="fill:#611212;" d="M550.907,218.205c0.906-0.622,1.897-1.098,2.951-1.408
														c0.454-0.134,0.261-0.846-0.196-0.711c-1.112,0.328-2.172,0.827-3.127,1.483c-0.164,0.113-0.238,0.324-0.132,0.505
														C550.498,218.236,550.742,218.319,550.907,218.205L550.907,218.205z"/>
												</g>
											</g>
										</g>
									</g>
									<path style="fill:#3041B0;" d="M629.93,247.745c0,0-8.849-5.072-14.107-7.162c-0.17-3.059-5.87,5.45-12.854,4.452
										c-3.646-0.521-3.439-0.208-4.406-3.109c0,0-19.581,18.761-21.309,27.377c-1.633,8.14-5.532,38.588-5.532,41.782
										l55.41-1.209C627.132,309.875,633.539,258.701,629.93,247.745z"/>
									<path style="fill:#18004C;" d="M629.93,247.745l-57.379,57.452l49.955,0.456
										C622.506,305.654,630.955,261.446,629.93,247.745z"/>
									<path style="fill:#A64B3D;" d="M559.373,310.495c0,0,41.47,0.695,60.811,0.373c19.341-0.322,17.479-20.339,17.13-27.948
										c-0.378-8.255,1.676-30.316-6.044-34.685c-1.261-0.714-0.589-0.512-2.496-1.249l0.028-0.091
										c-2.353-0.804-10.536-5.184-10.536-5.184c-0.109,3.632,1.829,15.63,1.918,22.505c0.028,9.906-3.97,27.297-5.459,28.786
										c-5.913,5.913-22.417,7.132-32.464,7.296c0,0-10.642-5.668-11.549-5.214c-0.906,0.453,6.11,5.441,6.11,5.441
										s-16.77-5.892-18.129-4.079c-1.36,1.813,11.104,5.212,9.971,6.119c-1.133,0.906-10.878-3.853-12.011-1.813
										c-1.133,2.04,11.104,5.439,11.104,5.439s-10.878-2.719-11.331-0.68c-0.453,2.04,10.862,3.929,10.862,3.929
										S559.826,306.869,559.373,310.495z"/>
									<path style="fill:#3041B0;" d="M637.314,282.92c-0.261-5.69,0.634-17.94-1.314-26.434
										c-5.308,2.054-10.578,4.206-15.856,6.341c0.02,0.481,0.034,0.946,0.04,1.388c0.028,9.906-3.97,27.297-5.459,28.786
										c-3.879,3.879-12.317,5.738-20.499,6.604c0.461,2.192,0.989,4.315,1.311,6.144c0.305,1.727,0.642,3.447,0.967,5.17
										c8.775,0.051,17.395,0.054,23.679-0.051C639.525,310.545,637.663,290.529,637.314,282.92z"/>
								</g>
								<g>
									<path style="fill:#611212;" d="M616.073,213.18c2.197-4.905,3.886-0.92,3.886-0.92L616.073,213.18z"/>
									<path style="fill:#BD5353;" d="M602.908,214.28c-1.617,0.345-2.649,1.935-2.304,3.553c0.345,1.618,1.935,2.649,3.553,2.305
										c1.617-0.345,2.649-1.935,2.304-3.553C606.116,214.967,604.526,213.936,602.908,214.28z"/>
									<path style="fill:#BD5353;" d="M591.057,220.508c1.276-0.557,2.029-1.952,1.727-3.367
										c-0.232-1.091-1.646-1.879-2.638-2.194C590.146,214.946,590.048,218.467,591.057,220.508z"/>
									<path style="fill:#FFFFFF;" d="M591.934,217.618l5.099-0.008c0,0-1.271,2.452-2.747,2.196
										C592.809,219.551,591.934,217.618,591.934,217.618z"/>
									<path style="fill:#611212;" d="M595.163,210.819l0.287,5.693l-1.734-0.035
										C593.396,216.471,595.163,210.819,595.163,210.819z"/>
									<path d="M600.323,208.788c0.579,0.358-0.377-1.335-1.149-1.494c-0.772-0.159-1.894-0.049-1.856,0.599
										C597.359,208.605,598.933,207.928,600.323,208.788z"/>
									<path d="M590.916,210.034c-0.534,0.422,0.221-1.37,0.969-1.617c0.748-0.247,1.812-0.19,1.74,0.723
										C593.57,209.851,592.198,209.019,590.916,210.034z"/>
									<path d="M598.164,213.068c0.007,0.588-0.218,1.068-0.504,1.072s-0.522-0.471-0.529-1.059
										c-0.007-0.588,0.218-1.068,0.504-1.072C597.92,212.006,598.157,212.48,598.164,213.068z"/>
									<path d="M593.205,212.925c0.007,0.562-0.208,1.02-0.481,1.023c-0.273,0.003-0.499-0.45-0.506-1.012
										c-0.007-0.562,0.209-1.02,0.481-1.023C592.972,211.91,593.198,212.363,593.205,212.925z"/>
								</g>
							</g>
							<path style="fill:#A13A3A;" d="M617.803,241.74"/>
							<g>
								<path style="fill:#000307;" d="M612.613,192.992c-1.214-1.292-6.651-3.325-4.002-11.901
									c0.362-1.171,0.458-2.463,1.213-3.427c1.088-1.39,3.045-1.896,4.783-1.588c1.738,0.308,3.279,1.314,4.595,2.49
									c1.985,1.773,3.607,4.059,4.141,6.666c0.535,2.607-0.162,5.544-2.147,7.317c-1.985,1.773-5.296,2.043-7.297,0.289"/>
							</g>
						</g>
						<circle style="fill:none;stroke:#EE3A58;stroke-miterlimit:10;" cx="618.735" cy="221.835" r="6.448"/>
					</g>
				</g>
			</g>
		</g>
	</g>
	<g>
		<g>
			<g>
				
					<rect x="401.435" y="310.571" transform="matrix(-1 -1.224647e-16 1.224647e-16 -1 848.1514 626.4522)" style="fill:#000307;" width="45.281" height="5.31"/>
				<polygon style="fill:#3041B0;" points="446.716,310.571 417.129,310.571 419.456,315.881 446.716,315.881 				"/>
				<polygon style="fill:#3041B0;" points="344.833,315.881 416.201,315.881 398.974,266.662 327.607,266.662 				"/>
				<path style="fill:#000307;" d="M367.705,292.655c0-2.475,2.006-4.481,4.481-4.481c2.475,0,4.481,2.006,4.481,4.481
					c0,2.475-2.006,4.481-4.481,4.481C369.711,297.136,367.705,295.13,367.705,292.655z"/>
			</g>
		</g>
		<g>
			<g>
				
					<rect x="562.005" y="310.52" transform="matrix(-1 -1.224647e-16 1.224647e-16 -1 1169.644 626.3906)" style="fill:#000307;" width="45.634" height="5.352"/>
				<polygon style="fill:#FFFFFF;stroke:#FFFFFF;stroke-width:1.0184;stroke-miterlimit:10;" points="607.639,310.52 
					577.821,310.52 580.167,315.871 607.639,315.871 				"/>
				<polygon style="fill:#FFFFFF;" points="504.963,315.871 576.886,315.871 559.525,266.269 487.602,266.269 				"/>
				<path style="fill:#000307;" d="M528.013,292.464c0-2.494,2.022-4.516,4.516-4.516c2.494,0,4.516,2.022,4.516,4.516
					s-2.022,4.516-4.516,4.516C530.034,296.98,528.013,294.958,528.013,292.464z"/>
			</g>
		</g>
		<g>
			<g>
				<ellipse style="fill:#ABC6FF;" cx="273.634" cy="451.215" rx="13.182" ry="1.492"/>
				<ellipse style="fill:#ABC6FF;" cx="656.056" cy="451.215" rx="13.182" ry="1.492"/>
			</g>
			<g>
				<g>
					<path style="fill:#FFFFFF;" d="M282.168,452.042L282.168,452.042c-1.799,0-3.275-1.471-3.342-3.331l13.76-117.049h15.087
						L285.51,448.711C285.443,450.57,283.966,452.042,282.168,452.042z"/>
					<path style="fill:#18004C;" d="M297.525,339.865c2.657-2.685,5.356-5.505,8.158-8.203h-13.098l-1.787,15.205
						C293.015,344.506,295.249,342.164,297.525,339.865z"/>
				</g>
				<g>
					<path style="fill:#FFFFFF;" d="M664.14,452.042L664.14,452.042c1.799,0,3.275-1.471,3.342-3.331l-13.76-117.049h-15.087
						l22.163,117.049C660.865,450.57,662.341,452.042,664.14,452.042z"/>
					<path style="fill:#18004C;" d="M655.452,346.377l-1.73-14.715h-14.449C644.849,336.366,650.226,341.288,655.452,346.377z"/>
				</g>
			</g>
			<path style="fill:#FFFFFF;" d="M667.687,333.287H281.53c-2.734,0-4.951-2.217-4.951-4.951l0,0c0-2.734,2.216-4.951,4.951-4.951
				h386.157c2.734,0,4.951,2.217,4.951,4.951l0,0C672.638,331.071,670.421,333.287,667.687,333.287z"/>
			<path style="fill:#18004C;" d="M682.114,327.007H267.103c-2.939,0-5.321-2.382-5.321-5.321v0c0-2.938,2.382-5.321,5.321-5.321
				h415.011c2.938,0,5.321,2.382,5.321,5.321v0C687.435,324.624,685.052,327.007,682.114,327.007z"/>
		</g>
	</g>
</g>
</svg>
